<svg xmlns="http://www.w3.org/2000/svg" viewBox="0 0 24 24" fill="#0a66c2">
  <path d="M20.447 20.452h-3.554v-5.569c0-1.328-.475-2.236-1.986-2.236-1.081 0-1.722.731-2.004 1.435-.103.25-.129.599-.129.949v5.421h-3.554s.047-8.789 0-9.709h3.554v1.374c.43-.664 1.199-1.608 2.928-1.608 2.136 0 3.745 1.393 3.745 4.385v5.558zM5.337 9.434c-1.144 0-1.915-.757-1.915-1.705 0-.968.771-1.707 1.954-1.707 1.182 0 1.915.738 1.94 1.707 0 .948-.758 1.705-1.979 1.705zm1.61 11.018h-3.22V9.743h3.22v10.709zM23.094 0H.906C.405 0 0 .405 0 .906v22.188c0 .501.405.906.906.906h23.188c.501 0 .906-.405.906-.906V.906C24 .405 23.595 0 23.094 0z"/>
</svg>